<svg width="56" height="56" viewBox="0 0 56 56" fill="none" xmlns="http://www.w3.org/2000/svg">
<mask id="mask0_3231_17581" style="mask-type:alpha" maskUnits="userSpaceOnUse" x="0" y="0" width="56" height="56">
<rect width="56" height="56" fill="#D9D9D9"/>
</mask>
<g mask="url(#mask0_3231_17581)">
<path d="M13.6474 39.8998C15.6307 38.3832 17.8474 37.1873 20.2974 36.3123C22.7474 35.4373 25.3141 34.9998 27.9974 34.9998C30.6807 34.9998 33.2474 35.4373 35.6974 36.3123C38.1474 37.1873 40.3641 38.3832 42.3474 39.8998C43.7085 38.3054 44.7682 36.4971 45.5266 34.4748C46.2849 32.4526 46.6641 30.2943 46.6641 27.9998C46.6641 22.8276 44.846 18.4234 41.2099 14.7873C37.5738 11.1512 33.1696 9.33317 27.9974 9.33317C22.8252 9.33317 18.421 11.1512 14.7849 14.7873C11.1488 18.4234 9.33073 22.8276 9.33073 27.9998C9.33073 30.2943 9.7099 32.4526 10.4682 34.4748C11.2266 36.4971 12.2863 38.3054 13.6474 39.8998ZM27.9974 30.3332C25.703 30.3332 23.7682 29.5457 22.1932 27.9707C20.6182 26.3957 19.8307 24.4609 19.8307 22.1665C19.8307 19.8721 20.6182 17.9373 22.1932 16.3623C23.7682 14.7873 25.703 13.9998 27.9974 13.9998C30.2918 13.9998 32.2266 14.7873 33.8016 16.3623C35.3766 17.9373 36.1641 19.8721 36.1641 22.1665C36.1641 24.4609 35.3766 26.3957 33.8016 27.9707C32.2266 29.5457 30.2918 30.3332 27.9974 30.3332ZM27.9974 51.3332C24.7696 51.3332 21.7363 50.7207 18.8974 49.4957C16.0585 48.2707 13.5891 46.6082 11.4891 44.5082C9.38906 42.4082 7.72656 39.9387 6.50156 37.0998C5.27656 34.2609 4.66406 31.2276 4.66406 27.9998C4.66406 24.7721 5.27656 21.7387 6.50156 18.8998C7.72656 16.0609 9.38906 13.5915 11.4891 11.4915C13.5891 9.3915 16.0585 7.729 18.8974 6.504C21.7363 5.279 24.7696 4.6665 27.9974 4.6665C31.2252 4.6665 34.2585 5.279 37.0974 6.504C39.9363 7.729 42.4057 9.3915 44.5057 11.4915C46.6057 13.5915 48.2682 16.0609 49.4932 18.8998C50.7182 21.7387 51.3307 24.7721 51.3307 27.9998C51.3307 31.2276 50.7182 34.2609 49.4932 37.0998C48.2682 39.9387 46.6057 42.4082 44.5057 44.5082C42.4057 46.6082 39.9363 48.2707 37.0974 49.4957C34.2585 50.7207 31.2252 51.3332 27.9974 51.3332Z" fill="#2555FF"/>
</g>
</svg>
